<svg version="1.1" id="Capa_1" xmlns="http://www.w3.org/2000/svg" x="0" y="0" viewBox="0 0 65.5 24" style="enable-background:new 0 0 65.5 24" xml:space="preserve"><style>.st0{fill:#f43f5e}</style><path class="st0" d="M15.5 11c.4 0 .8-.1 1.1-.4.3-.3.4-.6.4-1.1s-.1-.8-.4-1.1c-.3-.3-.7-.4-1.1-.4s-.8.1-1.1.4-.4.7-.4 1.1.1.8.4 1.1.7.4 1.1.4zm-7 0c.4 0 .8-.1 1.1-.4.3-.3.4-.7.4-1.1s-.1-.8-.4-1.1c-.3-.3-.7-.4-1.1-.4-.4 0-.8.1-1.1.4S7 9.1 7 9.5s.1.8.4 1.1.7.4 1.1.4zm3.5 6.5c1.1 0 2.2-.3 3.1-1 .9-.6 1.6-1.5 2-2.5H6.9c.4 1.1 1.1 1.9 2 2.5.9.7 2 1 3.1 1zm0 4.5c-1.4 0-2.7-.3-3.9-.8S5.8 20 4.9 19.1c-.9-.9-1.6-2-2.1-3.2S2 13.4 2 12s.3-2.7.8-3.9S4 5.8 4.9 4.9s2-1.6 3.2-2.1S10.6 2 12 2s2.7.3 3.9.8 2.3 1.2 3.2 2.1 1.6 2 2.1 3.2c.5 1.2.8 2.5.8 3.9s-.3 2.7-.8 3.9c-.5 1.2-1.2 2.3-2.1 3.2-.9.9-2 1.6-3.2 2.1s-2.5.8-3.9.8zm0-2c2.2 0 4.1-.8 5.7-2.3 1.5-1.5 2.3-3.4 2.3-5.7s-.8-4.1-2.3-5.7C16.1 4.8 14.2 4 12 4s-4.1.8-5.7 2.3S4 9.8 4 12s.8 4.1 2.3 5.7C7.9 19.2 9.8 20 12 20zM31.3 17v-5c0-1.3-.4-1.6-1.4-1.6-1.1 0-1.7.6-1.7 1.9V17H26V8.7h2.1v1.2c.5-.9 1.3-1.4 2.7-1.4 1.6 0 2.7 1 2.7 2.8V17h-2.2zM36.5 13.4c.1 1.2.8 2 1.8 2 .7 0 1.3-.4 1.5-.9H42c-.5 1.7-1.9 2.7-3.6 2.7-2.8 0-4.1-1.5-4.1-4.5 0-2.6 1.5-4.2 4-4.2s3.9 1.6 3.9 4.9h-5.7zm3.4-1.3c0-1.2-.8-1.8-1.7-1.8-.9 0-1.6.7-1.7 1.8h3.4zM42.2 17v-1.7l4.2-4.9h-3.9V8.7h6.7v1.8L45 15.2h4.3V17h-7.1zM49.4 12.9c0-2.6 1.6-4.3 4.2-4.3s4.2 1.7 4.2 4.3c0 2.6-1.6 4.3-4.2 4.3s-4.2-1.8-4.2-4.3zm6.2 0c0-1.7-.7-2.5-2-2.5s-2 .8-2 2.5.7 2.5 2 2.5 2-.9 2-2.5zM58.6 17V8.7h2v1c.7-1.1 1.6-1.2 2.5-1.2h.3v2.2h-.6c-1.3 0-2 .7-2 2V17h-2.2z"/></svg>